<?xml version="1.0" encoding="utf-8"?>
<!-- Generator: Adobe Illustrator 18.1.1, SVG Export Plug-In . SVG Version: 6.00 Build 0)  -->
<svg version="1.1" id="Capa_1" xmlns="http://www.w3.org/2000/svg" xmlns:xlink="http://www.w3.org/1999/xlink" x="0px" y="0px"
	 viewBox="0 0 425.2 425.2" enable-background="new 0 0 425.2 425.2" xml:space="preserve">
<g>
	<path fill="#303C42" d="M338.4,165.4c-5.7,0-11.3,1.6-15.9,4.3c-1.8-15.7-15.2-28.1-31.3-28.1c-7.7,0-14.8,2.7-20.2,7.3
		c-5.6-9.1-15.5-15.3-27-15.3c-5.6,0-11.1,1.5-15.7,4.2V55c0-17.3-14.1-31.4-31.4-31.4S165.5,37.7,165.5,55v210.8c0,4-2.5,6-3.8,6.7
		c-1.1,0.8-4.1,2.2-7.6,0.4l-50.7-25.2c-4.6-2.4-9.8-3.6-15-3.6c-18.5,0-33.3,15-33.3,33.3v6c0,2.3,0.8,4.2,2.4,5.7l91,84.8
		c19,17.8,43.9,27.6,69.9,27.6h49.3c56.5,0,102.4-45.9,102.4-102.4V196.9C370.1,179.5,355.8,165.4,338.4,165.4z"/>
	<path fill="#FAFAFA" d="M354.2,299.3c0,47.7-38.9,86.6-86.6,86.6h-49.3c-22,0-43-8.3-59.1-23.3l-88.4-82.5v-2.5
		c0-9.7,7.9-17.6,17.6-17.6c2.7,0,5.5,0.7,7.9,1.9l50.5,25.2c7.3,3.8,16,3.3,23.1-1s11.2-11.9,11.2-20.1V55
		c0-8.8,7.2-15.7,15.7-15.7c8.8,0,15.7,7.1,15.7,15.7v118.2c0,4.3,3.6,7.9,7.9,7.9c4.3,0,7.9-3.6,7.9-7.9v-7.9
		c0-8.8,7.2-15.7,15.7-15.7c8.8,0,15.7,7.2,15.7,15.7v7.9c0,0,0,0,0,0.1l0,0c0,4.3,3.6,7.8,7.9,7.8s7.9-3.6,7.9-7.9v-0.1
		c0.1-8.7,7.2-15.6,15.7-15.6c8.8,0,15.7,7.2,15.7,15.7v23.6c0,4.3,3.6,7.9,7.9,7.9s7.9-3.6,7.9-7.9c0-8.8,7.2-15.7,15.7-15.7
		c8.7,0,15.7,7.2,15.7,15.7L354.2,299.3L354.2,299.3L354.2,299.3z"/>
	<path opacity="0.1" enable-background="new    " d="M338.4,181.2v102.4c0,47.7-36.7,86.6-81.8,86.6h-46.7
		c-20.8,0-40.7-8.3-55.8-23.3c0,0-83.5-73.1-83.5-69.4v2.5l88.4,82.5c16.1,15.1,37.1,23.3,59.1,23.3h49.3
		c47.7,0,86.6-38.9,86.6-86.6V196.9C354.2,188.2,347.2,181.2,338.4,181.2z"/>
	
		<linearGradient id="SVGID_1_" gradientUnits="userSpaceOnUse" x1="-40.0867" y1="635.7662" x2="-22.4043" y2="627.5199" gradientTransform="matrix(15.7546 0 0 -15.7546 734.4967 10183.6953)">
		<stop  offset="0" style="stop-color:#FFFFFF;stop-opacity:0.2"/>
		<stop  offset="1" style="stop-color:#FFFFFF;stop-opacity:0"/>
	</linearGradient>
	<path fill="url(#SVGID_1_)" d="M338.4,165.4c-5.7,0-11.3,1.6-15.9,4.3c-1.8-15.7-15.2-28.1-31.3-28.1c-7.7,0-14.8,2.7-20.2,7.3
		c-5.6-9.1-15.5-15.3-27-15.3c-5.6,0-11.1,1.5-15.7,4.2V55c0-17.3-14.1-31.4-31.4-31.4S165.5,37.7,165.5,55v210.8c0,4-2.5,6-3.8,6.7
		c-1.1,0.8-4.1,2.2-7.6,0.4l-50.7-25.2c-4.6-2.4-9.8-3.6-15-3.6c-18.5,0-33.3,15-33.3,33.3v6c0,2.3,0.8,4.2,2.4,5.7l91,84.8
		c19,17.8,43.9,27.6,69.9,27.6h49.3c56.5,0,102.4-45.9,102.4-102.4V196.9C370.1,179.5,355.8,165.4,338.4,165.4z"/>
</g>
</svg>
